<svg width="1116" height="96" viewBox="0 0 1116 96" fill="none" xmlns="http://www.w3.org/2000/svg">
<rect opacity="0.3" x="90" width="49" height="49" rx="15.1546" transform="rotate(90 90 0)" fill="#C5299B" fill-opacity="0.25"/>
<rect opacity="0.3" x="418" y="2" width="49" height="49" rx="15.1546" transform="rotate(90 418 2)" fill="#C5299B" fill-opacity="0.25"/>
<rect opacity="0.3" x="828" y="1" width="49" height="49" rx="15.1546" transform="rotate(90 828 1)" fill="#C5299B" fill-opacity="0.25"/>
<rect opacity="0.3" x="254" width="49" height="49" rx="15.1546" transform="rotate(90 254 0)" fill="#C5299B" fill-opacity="0.25"/>
<rect opacity="0.3" x="582" y="1" width="49" height="49" rx="15.1546" transform="rotate(90 582 1)" fill="#C5299B" fill-opacity="0.25"/>
<rect opacity="0.3" x="992" width="49" height="49" rx="15.1546" transform="rotate(90 992 0)" fill="#C5299B" fill-opacity="0.25"/>
<rect opacity="0.3" x="172" width="49" height="49" rx="15.1546" transform="rotate(90 172 0)" fill="#C5299B" fill-opacity="0.25"/>
<rect opacity="0.3" x="500" y="2" width="49" height="49" rx="15.1546" transform="rotate(90 500 2)" fill="#C5299B" fill-opacity="0.25"/>
<rect opacity="0.3" x="910" y="1" width="49" height="49" rx="15.1546" transform="rotate(90 910 1)" fill="#C5299B" fill-opacity="0.25"/>
<rect opacity="0.3" x="336" width="49" height="49" rx="15.1546" transform="rotate(90 336 0)" fill="#C5299B" fill-opacity="0.25"/>
<rect opacity="0.3" x="746" y="1" width="49" height="49" rx="15.1546" transform="rotate(90 746 1)" fill="#C5299B" fill-opacity="0.25"/>
<rect opacity="0.3" x="664" y="1" width="49" height="49" rx="15.1546" transform="rotate(90 664 1)" fill="#C5299B" fill-opacity="0.25"/>
<rect opacity="0.3" x="1116" y="24" width="70" height="70" rx="21.6495" transform="rotate(90 1116 24)" fill="#C5299B" fill-opacity="0.25"/>
<rect opacity="0.3" x="49" y="45" width="49" height="49" rx="15.1546" transform="rotate(90 49 45)" fill="#F05555"/>
<rect opacity="0.3" x="377" y="47" width="49" height="49" rx="15.1546" transform="rotate(90 377 47)" fill="#F05555"/>
<rect opacity="0.3" x="787" y="46" width="49" height="49" rx="15.1546" transform="rotate(90 787 46)" fill="#F05555"/>
<rect opacity="0.3" x="213" y="45" width="49" height="49" rx="15.1546" transform="rotate(90 213 45)" fill="#F05555"/>
<rect opacity="0.3" x="541" y="46" width="49" height="49" rx="15.1546" transform="rotate(90 541 46)" fill="#F05555"/>
<rect opacity="0.3" x="951" y="45" width="49" height="49" rx="15.1546" transform="rotate(90 951 45)" fill="#F05555"/>
<rect opacity="0.3" x="131" y="44" width="49" height="49" rx="15.1546" transform="rotate(90 131 44)" fill="#F05555"/>
<rect opacity="0.3" x="459" y="46" width="49" height="49" rx="15.1546" transform="rotate(90 459 46)" fill="#F05555"/>
<rect opacity="0.3" x="869" y="45" width="49" height="49" rx="15.1546" transform="rotate(90 869 45)" fill="#F05555"/>
<rect opacity="0.3" x="295" y="44" width="49" height="49" rx="15.1546" transform="rotate(90 295 44)" fill="#F05555"/>
<rect opacity="0.3" x="705" y="45" width="49" height="49" rx="15.1546" transform="rotate(90 705 45)" fill="#F05555"/>
<rect opacity="0.3" x="623" y="45" width="49" height="49" rx="15.1546" transform="rotate(90 623 45)" fill="#F05555"/>
<rect opacity="0.3" x="1033" y="44" width="49" height="49" rx="15.1546" transform="rotate(90 1033 44)" fill="#F05555"/>
</svg>
