<svg width="95" height="542" viewBox="0 0 95 542" fill="none" xmlns="http://www.w3.org/2000/svg">
<rect opacity="0.3" x="44.9146" y="336.093" width="49" height="49" rx="15.1546" transform="rotate(-89.8807 44.9146 336.093)" fill="#C5299B" fill-opacity="0.25"/>
<rect opacity="0.3" x="45.4268" y="90.0934" width="49" height="49" rx="15.1546" transform="rotate(-89.8807 45.4268 90.0934)" fill="#C5299B" fill-opacity="0.25"/>
<rect opacity="0.3" x="45.573" y="500.095" width="49" height="49" rx="15.1546" transform="rotate(-89.8807 45.573 500.095)" fill="#C5299B" fill-opacity="0.25"/>
<rect opacity="0.3" x="44.7438" y="418.093" width="49" height="49" rx="15.1546" transform="rotate(-89.8807 44.7438 418.093)" fill="#C5299B" fill-opacity="0.25"/>
<rect opacity="0.3" x="45.0852" y="254.093" width="49" height="49" rx="15.1546" transform="rotate(-89.8807 45.0852 254.093)" fill="#C5299B" fill-opacity="0.25"/>
<rect opacity="0.3" x="45.256" y="172.093" width="49" height="49" rx="15.1546" transform="rotate(-89.8807 45.256 172.093)" fill="#C5299B" fill-opacity="0.25"/>
<rect opacity="0.3" y="294.999" width="49" height="49" rx="15.1546" transform="rotate(-89.8807 0 294.999)" fill="#F05555"/>
<rect opacity="0.3" x="0.512207" y="48.9999" width="49" height="49" rx="15.1546" transform="rotate(-89.8807 0.512207 48.9999)" fill="#F05555"/>
<rect opacity="0.3" x="0.658447" y="459.001" width="49" height="49" rx="15.1546" transform="rotate(-89.8807 0.658447 459.001)" fill="#F05555"/>
<rect opacity="0.3" x="0.829224" y="377.001" width="49" height="49" rx="15.1546" transform="rotate(-89.8807 0.829224 377.001)" fill="#F05555"/>
<rect opacity="0.3" x="1.17065" y="213.002" width="49" height="49" rx="15.1546" transform="rotate(-89.8807 1.17065 213.002)" fill="#F05555"/>
<rect opacity="0.3" x="1.34143" y="131.002" width="49" height="49" rx="15.1546" transform="rotate(-89.8807 1.34143 131.002)" fill="#F05555"/>
<rect opacity="0.3" x="1.48779" y="541.003" width="49" height="49" rx="15.1546" transform="rotate(-89.8807 1.48779 541.003)" fill="#F05555"/>
</svg>
